<svg viewBox="0 0 30 30" xmlns="http://www.w3.org/2000/svg"><path d="M6 21h1v3H6zm1-1h1v1H7zm16 1h1v3h-1zm-1-1h1v1h-1zM8 19h14v1H8zM1 7h1v1H1zM0 8h1v14H0zm1 14h1v1H1z"/><path d="M2 23h26v1H2zm26-1h1v1h-1zm1-14h1v14h-1zm-1-1h1v1h-1zM2 6h26v1H2zM21 10h1v1h-1zm-1 2h2v1h-2z"/><path d="M21 12h1v5h-1z"/><path d="M20 16h3v1h-3zM17 10h2v1h-2zm-1 2h3v1h-3z"/><path d="M17 10h1v7h-1zM14 11h1v1h-1zm-2-1h2v1h-2zm-1 1h1v2h-1zm1 2h2v1h-2zm2 1h1v2h-1zm-2 2h2v1h-2zm-1-1h1v1h-1z"/><g><path d="M9 10h1v6H9zm-2 6h2v1H7zm-1-1h1v1H6z"/></g></svg>