<svg viewBox="0 0 360 360" xmlns="http://www.w3.org/2000/svg" fill-rule="evenodd" clip-rule="evenodd" stroke-linejoin="round" stroke-miterlimit="1.414"><path d="M9.834 270.19V108h46.473v11.81h-31.18v138.57h31.18v11.81H9.834z" fill-rule="nonzero"/><path d="M83.63 270.19c-7.365 0-13.368-2.393-18.013-7.18-4.645-4.785-6.967-10.973-6.967-18.563v-29.82c0-6.062-2.067-10.79-6.202-14.19-4.135-3.398-9.855-5.24-17.162-5.522v-11.64c7.363-.283 13.098-2.152 17.205-5.607 4.107-3.455 6.16-8.128 6.16-14.02v-29.905c0-7.76 2.294-13.99 6.882-18.69C70.12 110.35 76.152 108 83.63 108h22.513v11.81H88.047c-5.155 0-8.865 1.245-11.13 3.738-2.266 2.492-3.4 6.768-3.4 12.83v29.395c0 5.55-1.81 10.436-5.436 14.656-3.624 4.22-8.354 7.037-14.188 8.453v.17c5.778 1.36 10.493 4.12 14.146 8.283 3.654 4.163 5.48 9.162 5.48 14.996v29.48c0 6.005 1.133 10.267 3.4 12.788 2.264 2.52 5.974 3.78 11.13 3.78h18.095v11.81H83.63zM179.96 43.197c-23.275 0-44.307 3.597-63.096 10.79-18.79 7.195-38.17 18.917-58.145 35.167v-24.12c19.973-16.25 39.333-27.91 58.08-34.977 18.747-7.067 39.885-10.6 63.413-10.6 23.106 0 43.947 3.47 62.525 10.41 18.577 6.94 38.022 18.662 58.335 35.166v24.12c-19.974-16.25-39.377-27.97-58.208-35.165-18.832-7.194-39.8-10.79-62.906-10.79z" fill-rule="nonzero"/><path d="M179.883 51.81c15.86 0 30.033 2.336 42.523 7.01 12.49 4.672 25.417 12.446 38.784 23.32v16.313c-13.65-11.1-26.777-19.03-39.38-23.79-12.602-4.757-26.52-7.135-41.757-7.135-15.18 0-29.07 2.378-41.674 7.136-12.603 4.758-25.73 12.688-39.38 23.79V82.14c13.594-11.044 26.564-18.86 38.912-23.448 12.348-4.588 26.338-6.882 41.97-6.882zM253.688 270.19v-11.81h18.097c5.154 0 8.878-1.26 11.172-3.78 2.294-2.52 3.44-6.783 3.44-12.787v-29.48c0-5.78 1.814-10.763 5.44-14.954 3.624-4.193 8.325-6.968 14.102-8.327v-.17c-5.778-1.416-10.48-4.248-14.104-8.496-3.625-4.25-5.438-9.12-5.438-14.614v-29.396c0-5.948-1.133-10.196-3.398-12.744-2.266-2.55-6.004-3.824-11.215-3.824h-18.097V108h22.515c7.533 0 13.58 2.35 18.14 7.052 4.56 4.7 6.838 10.93 6.838 18.69v29.907c0 5.946 2.07 10.634 6.204 14.06 4.134 3.427 9.855 5.282 17.162 5.565v11.64c-7.364.283-13.098 2.138-17.205 5.565-4.105 3.427-6.16 8.142-6.16 14.146v29.82c0 7.648-2.32 13.85-6.965 18.608-4.645 4.757-10.65 7.136-18.012 7.136h-22.515z" fill-rule="nonzero"/><path d="M303.44 270.19v-11.81h31.18V119.81h-31.18V108h46.473v162.19H303.44z" fill-rule="nonzero"/></svg>