<?xml version="1.0" standalone="no"?>
<!DOCTYPE svg PUBLIC "-//W3C//DTD SVG 1.1//EN" "http://www.w3.org/Graphics/SVG/1.1/DTD/svg11.dtd">
<svg width="100%" height="100%" viewBox="0 0 360 360" version="1.1" xmlns="http://www.w3.org/2000/svg" xmlns:xlink="http://www.w3.org/1999/xlink" xml:space="preserve" style="fill-rule:evenodd;clip-rule:evenodd;stroke-linejoin:round;stroke-miterlimit:1.41421;">
    <g id="JSFi.io">
        <g transform="matrix(1,0,0,1,-76.6168,183.59)">
            <path d="M86.451,76.6L86.451,-85.59L132.924,-85.59L132.924,-73.781L101.744,-73.781L101.744,64.791L132.924,64.791L132.924,76.6L86.451,76.6Z" style="fill:black;fill-rule:nonzero;"/>
        </g>
        <g transform="matrix(1,0,0,1,-35.6168,183.59)">
            <path d="M119.246,76.6C111.882,76.6 105.879,74.207 101.234,69.421C96.589,64.635 94.267,58.447 94.267,50.857L94.267,21.036C94.267,14.975 92.2,10.246 88.065,6.847C83.93,3.449 78.21,1.608 70.903,1.325L70.903,-10.315C78.266,-10.598 84.001,-12.467 88.108,-15.922C92.214,-19.377 94.267,-24.05 94.267,-29.941L94.267,-59.847C94.267,-67.607 96.561,-73.837 101.149,-78.538C105.737,-83.24 111.769,-85.59 119.246,-85.59L141.76,-85.59L141.76,-73.781L123.664,-73.781C118.509,-73.781 114.799,-72.535 112.534,-70.042C110.268,-67.55 109.135,-63.274 109.135,-57.213L109.135,-27.817C109.135,-22.266 107.323,-17.381 103.698,-13.161C100.073,-8.941 95.343,-6.123 89.509,-4.707L89.509,-4.537C95.287,-3.178 100.002,-0.417 103.655,3.746C107.309,7.909 109.135,12.908 109.135,18.742L109.135,48.223C109.135,54.227 110.268,58.489 112.534,61.01C114.799,63.53 118.509,64.791 123.664,64.791L141.76,64.791L141.76,76.6L119.246,76.6Z" style="fill:black;fill-rule:nonzero;"/>
        </g>
        <g transform="matrix(-3.28196e-16,1,-1,-3.28196e-16,153.166,-85.5776)">
            <path d="M118.775,-26.793C118.775,-3.519 122.372,17.513 129.566,36.302C136.76,55.091 148.482,74.473 164.732,94.447L140.611,94.447C124.361,74.473 112.702,55.113 105.635,36.366C98.568,17.619 95.035,-3.519 95.035,-27.047C95.035,-50.153 98.505,-70.994 105.445,-89.572C112.385,-108.149 124.107,-127.594 140.611,-147.907L164.732,-147.907C148.482,-127.933 136.76,-108.53 129.566,-89.699C122.372,-70.867 118.775,-49.899 118.775,-26.793Z" style="fill:black;fill-rule:nonzero;"/>
        </g>
        <g transform="matrix(-1.60812e-16,-1,1,-4.80171e-15,184.59,168.617)">
            <path d="M126.807,-4.707C126.807,11.152 124.471,25.326 119.798,37.816C115.125,50.305 107.351,63.233 96.476,76.6L80.164,76.6C91.265,62.95 99.195,49.823 103.953,37.221C108.711,24.618 111.089,10.699 111.089,-4.537C111.089,-19.717 108.711,-33.608 103.953,-46.211C99.195,-58.813 91.265,-71.94 80.164,-85.59L96.476,-85.59C107.521,-71.996 115.338,-59.026 119.925,-46.678C124.513,-34.33 126.807,-20.34 126.807,-4.707Z" style="fill:black;fill-rule:nonzero;"/>
        </g>
        <g transform="matrix(1,0,0,1,187.883,183.59)">
            <path d="M65.805,76.6L65.805,64.791L83.902,64.791C89.056,64.791 92.78,63.53 95.074,61.01C97.368,58.489 98.515,54.227 98.515,48.223L98.515,18.742C98.515,12.964 100.328,7.98 103.953,3.789C107.578,-0.403 112.279,-3.178 118.056,-4.537L118.056,-4.707C112.279,-6.123 107.578,-8.955 103.953,-13.203C100.328,-17.452 98.515,-22.323 98.515,-27.817L98.515,-57.213C98.515,-63.161 97.382,-67.409 95.117,-69.957C92.851,-72.506 89.113,-73.781 83.902,-73.781L65.805,-73.781L65.805,-85.59L88.32,-85.59C95.853,-85.59 101.9,-83.24 106.459,-78.538C111.019,-73.837 113.298,-67.607 113.298,-59.847L113.298,-29.941C113.298,-23.994 115.366,-19.306 119.501,-15.88C123.635,-12.453 129.356,-10.598 136.663,-10.315L136.663,1.325C129.299,1.608 123.565,3.463 119.458,6.89C115.352,10.317 113.298,15.032 113.298,21.036L113.298,50.857C113.298,58.504 110.976,64.706 106.332,69.464C101.687,74.221 95.683,76.6 88.32,76.6L65.805,76.6Z" style="fill:black;fill-rule:nonzero;"/>
        </g>
        <g transform="matrix(1,0,0,1,228.883,183.59)">
            <path d="M74.556,76.6L74.556,64.791L105.737,64.791L105.737,-73.781L74.556,-73.781L74.556,-85.59L121.03,-85.59L121.03,76.6L74.556,76.6Z" style="fill:black;fill-rule:nonzero;"/>
        </g>
    </g>
</svg>
