<?xml version="1.0" encoding="UTF-8" standalone="no"?>
<!DOCTYPE svg PUBLIC "-//W3C//DTD SVG 1.1//EN" "http://www.w3.org/Graphics/SVG/1.1/DTD/svg11.dtd">
<svg width="100%" height="100%" viewBox="0 0 32 32" version="1.1" xmlns="http://www.w3.org/2000/svg" xmlns:xlink="http://www.w3.org/1999/xlink" xml:space="preserve" style="fill-rule:evenodd;clip-rule:evenodd;stroke-linejoin:round;stroke-miterlimit:1.41421;">
    <g id="Casette" transform="matrix(1,0,0,1,1,2)">
        <g transform="matrix(0.4,0,0,0.0222222,5,20.3333)">
            <path d="M5,-15L2.5,120L47.5,120L45,-15L40,-105L10,-104.741L5,-15Z" style="fill:rgb(254,227,0);"/>
        </g>
        <g transform="matrix(0.4,0,0,0.0666667,4,18)">
            <rect x="5" y="30" width="2.5" height="45" style="fill:rgb(48,48,48);"/>
        </g>
        <g transform="matrix(0.4,0,0,0.0222222,5,18.3333)">
            <rect x="5" y="30" width="2.5" height="45" style="fill:rgb(48,48,48);"/>
        </g>
        <g transform="matrix(0.4,0,0,0.0666667,21,18)">
            <rect x="5" y="30" width="2.5" height="45" style="fill:rgb(48,48,48);"/>
        </g>
        <g transform="matrix(0.4,0,0,0.0222222,20,18.3333)">
            <rect x="5" y="30" width="2.5" height="45" style="fill:rgb(48,48,48);"/>
        </g>
        <g transform="matrix(5.6,0,0,0.0222222,-20,17.3333)">
            <rect x="5" y="30" width="2.5" height="45" style="fill:rgb(48,48,48);"/>
        </g>
        <g transform="matrix(0.4,0,0,0.0222222,-1,5.33333)">
            <rect x="5" y="30" width="2.5" height="45" style="fill:rgb(48,48,48);"/>
        </g>
        <g transform="matrix(0.4,0,0,0.311111,-2,-2.33333)">
            <rect x="5" y="30" width="2.5" height="45" style="fill:rgb(48,48,48);"/>
        </g>
        <g transform="matrix(0.4,0,0,0.0222222,-1,20.3333)">
            <rect x="5" y="30" width="2.5" height="45" style="fill:rgb(48,48,48);"/>
        </g>
        <g transform="matrix(10.4,0,0,0.0222222,-50,21.3333)">
            <rect x="5" y="30" width="2.5" height="45" style="fill:rgb(48,48,48);"/>
        </g>
        <g transform="matrix(0.4,0,0,0.0222222,26,20.3333)">
            <rect x="5" y="30" width="2.5" height="45" style="fill:rgb(48,48,48);"/>
        </g>
        <g transform="matrix(0.4,0,0,0.311111,27,-2.33333)">
            <rect x="5" y="30" width="2.5" height="45" style="fill:rgb(48,48,48);"/>
        </g>
        <g transform="matrix(0.4,0,0,0.0222222,26,5.33333)">
            <rect x="5" y="30" width="2.5" height="45" style="fill:rgb(48,48,48);"/>
        </g>
        <g transform="matrix(10.4,0,0,0.0222222,-50,4.33333)">
            <rect x="5" y="30" width="2.5" height="45" style="fill:rgb(48,48,48);"/>
        </g>
    </g>
    <g transform="matrix(1,0,0,1,0,2)">
        <g id="i" transform="matrix(1,0,0,1,13,0)">
            <g transform="matrix(0.4,0,0,0.0222222,7,8.33333)">
                <rect x="5" y="30" width="2.5" height="45" style="fill:rgb(48,48,48);"/>
            </g>
            <g transform="matrix(0.8,0,0,0.0222222,4,10.3333)">
                <rect x="5" y="30" width="2.5" height="45" style="fill:rgb(48,48,48);"/>
            </g>
            <g transform="matrix(0.4,0,0,0.111111,7,7.66667)">
                <rect x="5" y="30" width="2.5" height="45" style="fill:rgb(48,48,48);"/>
            </g>
            <g transform="matrix(1.2,0,0,0.0222222,2,14.3333)">
                <rect x="5" y="30" width="2.5" height="45" style="fill:rgb(48,48,48);"/>
            </g>
        </g>
        <g id="f" transform="matrix(1,0,0,1,9,0)">
            <g transform="matrix(0.8,0,0,0.0222222,5,8.33333)">
                <rect x="5" y="30" width="2.5" height="45" style="fill:rgb(48,48,48);"/>
            </g>
            <g transform="matrix(1.2,0,0,0.0222222,2,10.3333)">
                <rect x="5" y="30" width="2.5" height="45" style="fill:rgb(48,48,48);"/>
            </g>
            <g transform="matrix(0.4,0,0,0.155556,7,4.33333)">
                <rect x="5" y="30" width="2.5" height="45" style="fill:rgb(48,48,48);"/>
            </g>
        </g>
        <g id="S" transform="matrix(1,0,0,1,5,0)">
            <g transform="matrix(0.4,0,0,0.0222222,8,9.33333)">
                <rect x="5" y="30" width="2.5" height="45" style="fill:rgb(48,48,48);"/>
            </g>
            <g transform="matrix(0.8,0,0,0.0222222,4,8.33333)">
                <rect x="5" y="30" width="2.5" height="45" style="fill:rgb(48,48,48);"/>
            </g>
            <g transform="matrix(0.4,0,0,0.0444444,5,8.66667)">
                <rect x="5" y="30" width="2.5" height="45" style="fill:rgb(48,48,48);"/>
            </g>
            <g transform="matrix(0.8,0,0,0.0222222,4,11.3333)">
                <rect x="5" y="30" width="2.5" height="45" style="fill:rgb(48,48,48);"/>
            </g>
            <g transform="matrix(0.4,0,0,0.0444444,8,11.6667)">
                <rect x="5" y="30" width="2.5" height="45" style="fill:rgb(48,48,48);"/>
            </g>
            <g transform="matrix(0.8,0,0,0.0222222,4,14.3333)">
                <rect x="5" y="30" width="2.5" height="45" style="fill:rgb(48,48,48);"/>
            </g>
            <g transform="matrix(0.4,0,0,0.0222222,5,13.3333)">
                <rect x="5" y="30" width="2.5" height="45" style="fill:rgb(48,48,48);"/>
            </g>
        </g>
        <g id="J">
            <g transform="matrix(0.4,0,0,0.133333,8,5)">
                <rect x="5" y="30" width="2.5" height="45" style="fill:rgb(48,48,48);"/>
            </g>
            <g transform="matrix(0.8,0,0,0.0222222,4,14.3333)">
                <rect x="5" y="30" width="2.5" height="45" style="fill:rgb(48,48,48);"/>
            </g>
            <g transform="matrix(0.4,0,0,0.0222222,5,13.3333)">
                <rect x="5" y="30" width="2.5" height="45" style="fill:rgb(48,48,48);"/>
            </g>
        </g>
    </g>
</svg>
